<?xml version="1.0" encoding="UTF-8"?>
<svg id="Layer_2" data-name="Layer 2" xmlns="http://www.w3.org/2000/svg" viewBox="0 0 305.4 29.47">
  <g id="Layer_1-2" data-name="Layer 1">
    <g>
      <path d="M17.59,21.17l-1.19-18.73h-.45L3.13,20.48c-.4.58-.77,1.04-1.13,1.4-.36.36-.69.63-.98.82-.3.19-.59.31-.86.37l-.15.6c.32-.04.65-.06.98-.07.34,0,.75-.02,1.25-.02s1.07,0,1.67.02c.59,0,1.17.04,1.73.07l.15-.6c-.81-.02-1.41-.16-1.79-.43s-.49-.71-.34-1.32c.15-.62.59-1.44,1.33-2.47l2.23-3.16h7.32l.27,4.88c.04,1.01-.14,1.67-.54,1.98-.4.31-1.07.48-2.02.52l-.12.6c.4-.04.91-.06,1.55-.07.64,0,1.31-.02,2.02-.02.58,0,1.16,0,1.76.02s1.09.04,1.49.07l.12-.6c-.3-.02-.6-.16-.91-.43s-.49-.76-.55-1.47ZM7.63,15.09l6.38-9.01.49,9.01h-6.87Z" fill="#a5a5a5"/>
      <path d="M40.61,9.44c.34-1.59.66-2.93.98-4.03.32-1.1.62-2.04.92-2.81h-.63c-.32.87-.6,1.41-.85,1.62-.25.21-.51.17-.79-.1-.3-.34-.63-.65-1-.94-.37-.29-.82-.53-1.35-.71-.54-.19-1.23-.28-2.08-.28-1.51,0-2.92.3-4.23.89-1.31.59-2.5,1.4-3.57,2.41-1.07,1.01-2,2.16-2.77,3.45-.77,1.29-1.37,2.63-1.79,4.03-.42,1.4-.63,2.77-.63,4.12,0,2.3.61,4.04,1.83,5.22s2.92,1.77,5.11,1.77c.87,0,1.63-.09,2.26-.27.63-.18,1.22-.41,1.76-.7.54-.29,1.07-.61,1.61-.97.34-.22.58-.3.74-.25.16.05.24.3.24.76,0,.26-.03.59-.09,1.01h.66c.14-.75.34-1.68.61-2.78s.65-2.55,1.15-4.36h-.66c-.48,1.15-.91,2.09-1.29,2.81-.39.72-.85,1.36-1.38,1.89-.73.75-1.59,1.33-2.58,1.73-.98.4-1.89.6-2.72.6-1.31,0-2.35-.49-3.11-1.46-.76-.97-1.15-2.43-1.15-4.38,0-1.33.18-2.69.54-4.09.36-1.4.85-2.75,1.49-4.05.63-1.3,1.37-2.47,2.2-3.5.83-1.03,1.74-1.85,2.71-2.46.97-.61,1.97-.91,3.01-.91.81,0,1.57.2,2.28.59.7.4,1.25.97,1.62,1.73.26.5.41,1.1.46,1.8.05.7,0,1.57-.16,2.6h.66Z" fill="#a5a5a5"/>
      <path d="M54.45,2.68h-1.68c-.68,0-1.42,0-2.22-.01s-1.6-.02-2.41-.03c-.81,0-1.59-.02-2.32-.04l-.15.59c.67.02,1.17.1,1.47.22s.48.37.51.71c.03.35-.05.89-.25,1.62l-3.96,14.77c-.2.71-.4,1.25-.61,1.61-.21.36-.5.59-.88.71s-.9.2-1.58.24l-.15.6c.71-.02,1.48-.03,2.29-.04.81,0,1.62-.02,2.41-.03.79,0,1.53-.02,2.22-.02h1.68c.99,0,2.12,0,3.39.02,1.27,0,2.41.04,3.42.07.12-.75.26-1.48.42-2.19.16-.71.29-1.25.39-1.62.1-.42.21-.81.33-1.19.12-.38.23-.69.33-.95h-.68c-.48,1.31-.96,2.35-1.46,3.11-.5.77-1.11,1.32-1.85,1.65-.73.34-1.73.51-2.98.51h-2.17c-.67,0-1.17-.05-1.49-.16-.32-.11-.49-.34-.52-.7-.03-.36.05-.89.25-1.61l1.92-7.14h1.95c.65,0,1.13.12,1.43.34.3.23.48.53.55.91.07.38.07.8.01,1.27-.06.47-.12.94-.18,1.41h.68c.16-.75.29-1.38.4-1.89.11-.51.21-.94.3-1.31.09-.37.17-.71.25-1.03.14-.5.28-1.04.43-1.64.15-.6.41-1.46.79-2.59h-.68c-.16.36-.33.76-.51,1.21-.18.45-.4.88-.67,1.29-.27.42-.61.76-1.03,1.03-.42.27-.95.4-1.61.4h-1.97l1.88-7.03c.2-.73.41-1.27.62-1.62.22-.35.51-.58.88-.68.37-.11.89-.16,1.56-.16h2.17c1.05,0,1.8.14,2.25.43.45.29.69.77.73,1.46.04.68-.04,1.61-.24,2.78h.68c.04-.22.09-.49.16-.82.07-.33.15-.67.25-1.03.1-.34.25-.83.45-1.49s.43-1.33.68-2.02c-.87.04-1.86.07-2.96.08s-2.09.01-2.96.01Z" fill="#a5a5a5"/>
      <path d="M83.43,3.66c-.92-.69-2.33-1.04-4.21-1.04-.73,0-1.44,0-2.13.03s-1.38.03-2.07.03c-.44,0-.88,0-1.33-.01-.45,0-.86-.02-1.24-.03-.38,0-.7-.02-.98-.04l-.15.59c.77,0,1.3.1,1.59.28.29.19.42.47.4.83s-.1.85-.24,1.44l-3.93,14.77c-.18.71-.38,1.25-.6,1.61-.22.36-.52.59-.89.71s-.9.2-1.58.24l-.12.6c.28-.02.61-.03,1-.04.39,0,.81-.02,1.27-.03.46,0,.91-.02,1.37-.02,1.03,0,1.95.02,2.77.04.81.03,1.6.04,2.35.04,1.07,0,2.13-.13,3.19-.39s2-.64,2.86-1.16c.85-.52,1.54-1.17,2.05-1.95.52-.78.77-1.71.77-2.78,0-1.17-.36-2.2-1.07-3.08-.71-.88-1.98-1.47-3.81-1.77,1.01-.32,1.98-.76,2.92-1.33.93-.57,1.7-1.25,2.29-2.05s.89-1.71.89-2.72c0-1.15-.46-2.07-1.38-2.77ZM78.79,13.46c.62.32,1.09.77,1.38,1.35s.45,1.29.45,2.13c0,1.27-.24,2.36-.71,3.26-.48.9-1.24,1.59-2.28,2.07-1.04.48-2.44.71-4.18.71-.67,0-1.14-.08-1.4-.24-.26-.16-.38-.42-.37-.79,0-.37.09-.85.25-1.44l1.99-7.53h2.45c.99,0,1.8.16,2.43.48ZM81.15,9.5c-.48.89-1.15,1.61-2.02,2.16-.87.54-1.92.82-3.13.82h-1.95l1.9-7.17c.22-.87.51-1.44.86-1.71s.97-.4,1.85-.4c1.13,0,1.95.28,2.46.85.51.56.76,1.43.76,2.6,0,1.01-.24,1.96-.71,2.86Z" fill="#a5a5a5"/>
      <path d="M101.19,7.95c-.38.14-.8.24-1.26.3-.47.06-.95.1-1.44.12l-.32,1.27c-.41,1.56-.86,3.01-1.36,4.37-.51,1.38-1.03,2.63-1.58,3.75-.55,1.12-1.1,2.08-1.65,2.89s-1.1,1.42-1.64,1.85c-.54.43-1.04.64-1.52.64-.99,0-1.21-.83-.66-2.5l2.83-8.51c.24-.69.39-1.36.46-1.99.07-.63-.04-1.16-.33-1.56-.29-.41-.87-.61-1.74-.61-.4,0-.82.08-1.27.25-.45.17-.87.47-1.28.91-.41.44-.76,1.07-1.06,1.91l-.74,2.17h.57l.39-1.1c.42-1.19.81-2,1.18-2.41.37-.42.74-.62,1.12-.62.4,0,.62.16.68.48s0,.77-.21,1.37l-2.89,8.69c-.28.85-.42,1.62-.42,2.29s.2,1.21.6,1.61c.4.4,1.03.6,1.91.6.71,0,1.4-.19,2.07-.57s1.32-.98,1.96-1.82c.65-.83,1.29-1.94,1.95-3.3.32-.66.64-1.4.97-2.2l-.94,3.72c-.22.87-.35,1.57-.4,2.08s0,.94.16,1.28c.14.26.35.46.62.6.28.14.58.21.89.21.42,0,.85-.08,1.3-.25.45-.17.87-.47,1.28-.91.41-.44.75-1.07,1.03-1.91l.74-2.17h-.57l-.39,1.1c-.38,1.09-.75,1.87-1.12,2.34-.37.47-.77.7-1.21.7-.4,0-.6-.17-.61-.52-.01-.35.05-.79.19-1.33l3.69-13.19Z" fill="#a5a5a5"/>
      <path d="M111.61,8.16c-.56-.14-1.12-.21-1.7-.21-.83,0-1.6.18-2.31.54-.7.36-1.26.85-1.68,1.47s-.62,1.37-.62,2.22c0,.91.21,1.7.62,2.37.42.67.85,1.32,1.31,1.95.58.79.98,1.49,1.21,2.1.23.61.34,1.22.34,1.83,0,.99-.28,1.75-.85,2.28-.57.53-1.29.79-2.16.79-.38,0-.66-.02-.85-.07-.19-.05-.36-.11-.52-.19.04-.22.08-.45.13-.7.05-.25.07-.53.07-.85,0-.48-.1-.91-.3-1.29-.2-.39-.54-.58-1.01-.58-.44,0-.74.15-.91.46-.17.31-.25.6-.25.88,0,.71.19,1.29.58,1.71s.89.74,1.5.94,1.26.3,1.94.3c.93,0,1.79-.2,2.56-.6.77-.4,1.39-.95,1.86-1.65.47-.7.7-1.51.7-2.43,0-.77-.17-1.51-.51-2.2-.34-.69-.75-1.42-1.25-2.17-.38-.58-.7-1.05-.97-1.43s-.47-.74-.61-1.09-.21-.75-.21-1.21c0-.89.25-1.59.74-2.08s1.11-.74,1.85-.74c.61,0,1.11.12,1.49.36-.26.32-.46.64-.61.97-.15.33-.22.67-.22,1.03,0,.38.12.68.36.91.24.23.52.34.83.34.34,0,.6-.09.8-.27.2-.18.34-.39.43-.64.09-.25.13-.46.13-.64,0-.71-.18-1.25-.55-1.62-.37-.37-.83-.62-1.38-.76Z" fill="#a5a5a5"/>
      <path d="M120.51,19.95c-.44,1.15-.83,1.95-1.19,2.38-.36.44-.73.66-1.13.66s-.6-.16-.67-.49c-.07-.33,0-.78.19-1.35l3.19-9.02c.16-.46.29-.93.39-1.41.1-.49.12-.94.06-1.35s-.24-.75-.54-1.01c-.3-.26-.76-.39-1.4-.39-.4,0-.83.08-1.29.25-.47.17-.91.47-1.32.91s-.77,1.07-1.07,1.91l-.77,2.17h.57l.42-1.1c.4-1.03.77-1.8,1.13-2.29s.76-.74,1.22-.74c.69,0,.83.62.42,1.85l-3.19,9.02c-.26.71-.43,1.39-.51,2.02-.08.63.03,1.15.33,1.55.3.4.87.6,1.73.6.46,0,.91-.09,1.37-.28.46-.19.88-.51,1.28-.95.4-.45.73-1.06,1.01-1.83l.77-2.17h-.57l-.42,1.1Z" fill="#a5a5a5"/>
      <path d="M121.79,1.04c-.5,0-.96.19-1.38.57-.43.38-.69.82-.79,1.34-.1.52,0,.96.28,1.34.29.38.68.57,1.18.57s.99-.19,1.41-.57c.43-.38.69-.82.79-1.34s0-.96-.28-1.34c-.29-.38-.69-.57-1.21-.57Z" fill="#a5a5a5"/>
      <path d="M137.8,19.95c-.42,1.19-.81,1.99-1.18,2.41-.37.42-.74.63-1.12.63-.44,0-.67-.17-.7-.52-.03-.35.04-.79.22-1.33l2.89-8.69c.24-.73.38-1.44.42-2.13.04-.69-.11-1.25-.46-1.7-.35-.45-.99-.67-1.92-.67-.71,0-1.4.16-2.07.49-.67.33-1.32.86-1.95,1.61-.64.74-1.28,1.72-1.93,2.93-.49.91-.99,1.97-1.5,3.2l1.03-4.06c.12-.48.22-.96.31-1.44.09-.49.12-.93.09-1.34-.03-.41-.18-.74-.45-1-.27-.26-.7-.39-1.29-.39-.64,0-1.28.2-1.92.6-.65.4-1.19,1.22-1.62,2.47l-.74,2.17h.57l.39-1.1c.42-1.17.79-1.97,1.13-2.4s.72-.64,1.16-.64c.32,0,.52.1.6.31.08.21.09.46.04.74-.05.29-.11.55-.19.79l-3.57,12.77h2.59l.53-2.1c.41-1.42.86-2.76,1.36-4.02.51-1.28,1.04-2.45,1.59-3.51.56-1.06,1.12-1.97,1.7-2.74.58-.76,1.13-1.36,1.67-1.77.54-.42,1.04-.62,1.52-.62s.76.15.86.46c.1.31.11.66.04,1.04-.07.39-.15.72-.25,1l-2.83,8.51c-.24.69-.4,1.33-.48,1.91-.08.58,0,1.04.21,1.4.16.26.39.47.7.63s.7.24,1.18.24c.42,0,.85-.08,1.29-.25.45-.17.87-.47,1.28-.91.41-.44.75-1.07,1.03-1.91l.74-2.17h-.57l-.39,1.1Z" fill="#a5a5a5"/>
      <path d="M151.99,8.44c-.43-.33-.95-.49-1.56-.49-1.13,0-2.19.27-3.18.8-.99.54-1.9,1.25-2.71,2.14-.81.89-1.51,1.87-2.1,2.93-.58,1.06-1.04,2.12-1.35,3.18-.32,1.06-.48,2.02-.48,2.87,0,.91.16,1.68.48,2.31s.77,1.1,1.37,1.41c.59.32,1.29.48,2.08.48.85,0,1.66-.19,2.43-.58.76-.39,1.45-.89,2.07-1.5.61-.62,1.11-1.25,1.49-1.91l-.48-.24c-.75,1.11-1.53,1.89-2.32,2.32s-1.55.65-2.26.65c-.62,0-1.11-.22-1.49-.67-.38-.45-.57-1.18-.57-2.19s.13-1.92.34-2.89c.39-.13.8-.28,1.24-.44.85-.32,1.73-.7,2.62-1.13.89-.44,1.72-.94,2.49-1.5.76-.57,1.38-1.19,1.85-1.88.47-.69.7-1.42.7-2.22,0-.65-.21-1.15-.64-1.47ZM149.62,12.53c-.42.81-.98,1.51-1.7,2.08-.54.42-1.26.81-2.16,1.18-.58.24-1.23.48-1.9.72.27-1.03.62-2.02,1.06-2.94.47-.97.98-1.84,1.53-2.61.56-.76,1.12-1.36,1.7-1.8.58-.44,1.11-.65,1.61-.65.16,0,.28.08.36.24.08.16.12.53.12,1.1,0,.97-.21,1.87-.63,2.68Z" fill="#a5a5a5"/>
      <path d="M163.36,8.92c-.37-.37-.83-.62-1.38-.76-.56-.14-1.12-.21-1.7-.21-.83,0-1.6.18-2.31.54-.7.36-1.26.85-1.68,1.47s-.62,1.37-.62,2.22c0,.91.21,1.7.62,2.37.42.67.85,1.32,1.31,1.95.58.79.98,1.49,1.21,2.1.23.61.34,1.22.34,1.83,0,.99-.28,1.75-.85,2.28-.57.53-1.29.79-2.16.79-.38,0-.66-.02-.85-.07-.19-.05-.36-.11-.52-.19.04-.22.08-.45.13-.7.05-.25.07-.53.07-.85,0-.48-.1-.91-.3-1.29-.2-.39-.54-.58-1.01-.58-.44,0-.74.15-.91.46-.17.31-.25.6-.25.88,0,.71.19,1.29.58,1.71s.89.74,1.5.94,1.26.3,1.94.3c.93,0,1.79-.2,2.56-.6.77-.4,1.39-.95,1.86-1.65.47-.7.7-1.51.7-2.43,0-.77-.17-1.51-.51-2.2-.34-.69-.75-1.42-1.25-2.17-.38-.58-.7-1.05-.97-1.43s-.47-.74-.61-1.09-.21-.75-.21-1.21c0-.89.25-1.59.74-2.08s1.11-.74,1.85-.74c.61,0,1.11.12,1.49.36-.26.32-.46.64-.61.97-.15.33-.22.67-.22,1.03,0,.38.12.68.36.91.24.23.52.34.83.34.34,0,.6-.09.8-.27.2-.18.34-.39.43-.64.09-.25.13-.46.13-.64,0-.71-.18-1.25-.55-1.62Z" fill="#a5a5a5"/>
      <path d="M173.32,8.16c-.56-.14-1.12-.21-1.7-.21-.83,0-1.6.18-2.31.54-.71.36-1.27.85-1.68,1.47-.42.62-.63,1.37-.63,2.22,0,.91.21,1.7.63,2.37.42.67.85,1.32,1.31,1.95.58.79.98,1.49,1.21,2.1.23.61.34,1.22.34,1.83,0,.99-.28,1.75-.85,2.28-.57.53-1.29.79-2.16.79-.38,0-.66-.02-.85-.07s-.36-.11-.52-.19c.04-.22.08-.45.13-.7.05-.25.07-.53.07-.85,0-.48-.1-.91-.3-1.29-.2-.39-.54-.58-1.01-.58-.44,0-.74.15-.91.46-.17.31-.25.6-.25.88,0,.71.19,1.29.58,1.71.39.43.89.74,1.5.94s1.26.3,1.93.3c.93,0,1.79-.2,2.56-.6.77-.4,1.39-.95,1.86-1.65.47-.7.7-1.51.7-2.43,0-.77-.17-1.51-.51-2.2-.34-.69-.75-1.42-1.25-2.17-.38-.58-.7-1.05-.97-1.43-.27-.38-.47-.74-.61-1.09s-.21-.75-.21-1.21c0-.89.25-1.59.74-2.08.5-.5,1.11-.74,1.85-.74.62,0,1.11.12,1.49.36-.26.32-.46.64-.61.97-.15.33-.22.67-.22,1.03,0,.38.12.68.36.91.24.23.52.34.83.34.34,0,.61-.09.8-.27s.34-.39.43-.64c.09-.25.13-.46.13-.64,0-.71-.18-1.25-.55-1.62-.37-.37-.83-.62-1.38-.76Z" fill="#a5a5a5"/>
      <path d="M203.8,2.59c-.32.87-.6,1.41-.85,1.62-.25.21-.51.17-.79-.1-.3-.34-.63-.65-1-.94-.37-.29-.82-.53-1.35-.71-.54-.19-1.23-.28-2.08-.28-1.51,0-2.92.3-4.23.89-1.31.59-2.5,1.4-3.57,2.41-1.07,1.01-1.99,2.16-2.77,3.45-.77,1.29-1.37,2.63-1.79,4.03s-.62,2.77-.62,4.12c0,2.3.61,4.04,1.83,5.22s2.92,1.77,5.11,1.77c.87,0,1.63-.09,2.26-.27.63-.18,1.22-.41,1.76-.7.54-.29,1.07-.61,1.61-.97.34-.22.59-.3.74-.25.16.05.24.3.24.76,0,.26-.03.59-.09,1.01h.66c.14-.75.34-1.68.61-2.78.27-1.1.65-2.55,1.15-4.36h-.66c-.48,1.15-.91,2.09-1.29,2.81-.39.72-.85,1.36-1.38,1.89-.73.75-1.59,1.33-2.58,1.73-.98.4-1.89.6-2.72.6-1.31,0-2.35-.49-3.11-1.46-.76-.97-1.15-2.43-1.15-4.38,0-1.33.18-2.69.54-4.09.36-1.4.85-2.75,1.49-4.05.64-1.3,1.37-2.47,2.2-3.5.83-1.03,1.74-1.85,2.71-2.46s1.97-.91,3.01-.91c.81,0,1.57.2,2.28.59.7.4,1.25.97,1.62,1.73.26.5.41,1.1.46,1.8s0,1.57-.16,2.6h.66c.34-1.59.67-2.93.98-4.03s.62-2.04.92-2.81h-.62Z" fill="#a5a5a5"/>
      <path d="M212.41,7.95c-1.11,0-2.12.25-3.04.76-.91.51-1.71,1.18-2.4,2.01-.69.83-1.27,1.76-1.74,2.77-.48,1.01-.83,2.04-1.07,3.07-.24,1.03-.36,1.98-.36,2.86,0,1.57.37,2.74,1.12,3.51s1.73,1.16,2.96,1.16c1.11,0,2.12-.25,3.04-.76.91-.51,1.71-1.18,2.4-2.01s1.26-1.76,1.74-2.77c.48-1.01.83-2.03,1.07-3.07.24-1.03.36-1.98.36-2.86,0-1.59-.37-2.76-1.12-3.53s-1.73-1.15-2.96-1.15ZM213.63,14.45c-.2,1.14-.48,2.25-.83,3.32s-.78,2.04-1.28,2.9-1.04,1.55-1.62,2.05c-.59.51-1.2.76-1.83.76-.56,0-.98-.21-1.26-.62-.29-.42-.43-1.07-.43-1.96,0-1.05.1-2.15.3-3.3.2-1.15.48-2.26.85-3.33s.79-2.04,1.28-2.9,1.02-1.55,1.61-2.05c.58-.51,1.2-.76,1.83-.76.58,0,1,.2,1.28.61.28.41.42,1.07.42,1.98,0,1.07-.1,2.18-.3,3.32Z" fill="#a5a5a5"/>
      <path d="M228.15,21.11l3.72-13.16c-.4.14-.83.24-1.31.3s-.95.1-1.43.12l-.46,1.82c-.04-.47-.15-.87-.33-1.21-.37-.68-.9-1.03-1.59-1.03-.89,0-1.77.28-2.63.83s-1.66,1.29-2.4,2.2c-.73.91-1.38,1.92-1.95,3.04-.57,1.11-1.01,2.23-1.32,3.35-.32,1.12-.48,2.16-.48,3.11,0,1.05.23,1.92.7,2.59.47.67,1.17,1.01,2.1,1.01.79,0,1.58-.28,2.35-.85s1.54-1.49,2.29-2.77c.45-.77.91-1.7,1.36-2.77l-.55,2.19c-.16.62-.3,1.23-.42,1.83-.12.61-.05,1.14.21,1.59.32.52.86.77,1.64.77.4,0,.8-.09,1.22-.28.42-.19.82-.51,1.21-.95.39-.45.72-1.07,1-1.86l.74-2.17h-.57l-.36,1.1c-.38,1.15-.75,1.95-1.13,2.38s-.76.65-1.16.65c-.34,0-.54-.12-.61-.36s-.07-.5,0-.79c.07-.29.12-.52.16-.7ZM226.9,16.25c-.54,1.31-1.12,2.48-1.76,3.51-.64,1.03-1.26,1.85-1.88,2.46s-1.16.91-1.64.91c-.32,0-.57-.17-.76-.51-.19-.34-.28-.93-.28-1.79,0-1.05.12-2.15.37-3.29.25-1.14.58-2.25,1.01-3.32.43-1.07.9-2.04,1.43-2.9.53-.86,1.07-1.55,1.64-2.05.57-.51,1.11-.76,1.62-.76.63,0,1.09.32,1.37.97.26.6.33,1.39.23,2.34l-.29,1.13c-.29,1.13-.64,2.24-1.07,3.3Z" fill="#a5a5a5"/>
      <path d="M245.06,8.62c-.64-.45-1.39-.67-2.26-.67-1.11,0-2.13.26-3.07.77-.93.52-1.77,1.2-2.5,2.04-.73.84-1.35,1.79-1.86,2.83s-.89,2.09-1.16,3.16c-.27,1.06-.4,2.05-.4,2.96,0,1.45.36,2.54,1.07,3.27.71.73,1.67,1.1,2.86,1.1.85,0,1.66-.19,2.43-.58.76-.39,1.45-.89,2.07-1.5.61-.62,1.11-1.25,1.49-1.91l-.6-.24c-.75,1.11-1.51,1.89-2.26,2.32s-1.49.65-2.2.65c-.62,0-1.12-.22-1.5-.67-.39-.45-.58-1.18-.58-2.19,0-1.51.18-2.95.55-4.32s.86-2.59,1.47-3.66,1.3-1.92,2.04-2.53,1.49-.92,2.25-.92c.52,0,.93.08,1.25.25.32.17.58.39.77.67-.58.1-1.09.35-1.55.76-.46.41-.68.9-.68,1.47,0,.32.1.59.3.82.2.23.51.34.92.34s.81-.12,1.13-.36.56-.54.73-.91c.17-.37.25-.74.25-1.12,0-.79-.32-1.41-.95-1.86Z" fill="#a5a5a5"/>
      <path d="M259.65,19.95c-.42,1.19-.81,1.99-1.18,2.41-.37.42-.74.63-1.12.63-.44,0-.67-.18-.68-.54s.05-.79.21-1.31l2.89-8.69c.24-.71.38-1.42.42-2.11s-.11-1.26-.46-1.71c-.35-.45-.99-.67-1.92-.67-.77,0-1.52.2-2.23.6-.71.4-1.41,1.04-2.08,1.92s-1.35,2.05-2.04,3.5c-.14.29-.28.6-.42.92l4.36-14.88c-.73.38-1.54.67-2.41.88-.87.21-1.86.32-2.95.34l-.18.62c.97,0,1.58.16,1.83.48.25.32.27.81.07,1.49l-5.89,19.86h2.59l1.03-3.51c.19-.6.39-1.19.59-1.75.53-1.44,1.08-2.74,1.65-3.92.58-1.17,1.16-2.17,1.76-3.01.6-.83,1.18-1.47,1.74-1.92.57-.45,1.1-.67,1.59-.67s.77.14.88.43c.11.29.12.63.04,1.03-.08.4-.17.74-.27,1.04l-2.83,8.51c-.26.79-.41,1.51-.46,2.14-.05.63.08,1.13.4,1.49s.87.54,1.67.54c.42,0,.85-.08,1.3-.25.45-.17.87-.47,1.28-.91.41-.44.75-1.07,1.03-1.91l.74-2.17h-.57l-.39,1.1Z" fill="#a5a5a5"/>
      <path d="M269.89,1.04c-.5,0-.96.19-1.38.57-.43.38-.69.82-.79,1.34-.1.52,0,.96.28,1.34.29.38.68.57,1.18.57s.99-.19,1.41-.57c.43-.38.69-.82.79-1.34s0-.96-.28-1.34c-.29-.38-.69-.57-1.21-.57Z" fill="#a5a5a5"/>
      <path d="M268.61,19.95c-.44,1.15-.83,1.95-1.19,2.38-.36.44-.73.66-1.13.66s-.6-.16-.67-.49c-.07-.33,0-.78.19-1.35l3.19-9.02c.16-.46.29-.93.39-1.41.1-.49.12-.94.06-1.35s-.24-.75-.54-1.01c-.3-.26-.76-.39-1.4-.39-.4,0-.83.08-1.29.25-.47.17-.91.47-1.32.91s-.77,1.07-1.07,1.91l-.77,2.17h.57l.42-1.1c.4-1.03.77-1.8,1.13-2.29s.76-.74,1.22-.74c.69,0,.83.62.42,1.85l-3.19,9.02c-.26.71-.43,1.39-.51,2.02-.08.63.03,1.15.33,1.55.3.4.87.6,1.73.6.46,0,.91-.09,1.37-.28.46-.19.88-.51,1.28-.95.4-.45.73-1.06,1.01-1.83l.77-2.17h-.57l-.42,1.1Z" fill="#a5a5a5"/>
      <path d="M286.86,18.84h-.57l-.39,1.1c-.42,1.19-.81,1.99-1.18,2.41-.37.42-.74.63-1.12.63-.44,0-.67-.17-.7-.52-.03-.35.04-.79.22-1.33l2.89-8.69c.24-.73.38-1.44.42-2.13.04-.69-.11-1.25-.46-1.7-.35-.45-.99-.67-1.92-.67-.71,0-1.4.16-2.07.49-.67.33-1.32.86-1.95,1.61-.64.74-1.28,1.72-1.93,2.93-.49.91-.99,1.97-1.5,3.2l1.03-4.06c.12-.48.22-.96.31-1.44.09-.49.12-.93.09-1.34-.03-.41-.18-.74-.45-1-.27-.26-.7-.39-1.29-.39-.64,0-1.28.2-1.92.6-.65.4-1.19,1.22-1.62,2.47l-.74,2.17h.57l.39-1.1c.42-1.17.79-1.97,1.13-2.4s.72-.64,1.16-.64c.32,0,.52.1.6.31.08.21.09.46.04.74-.05.29-.11.55-.19.79l-3.57,12.77h2.59l.53-2.1c.41-1.42.86-2.76,1.36-4.02.51-1.28,1.04-2.45,1.59-3.51.56-1.06,1.12-1.97,1.7-2.74.58-.76,1.13-1.36,1.67-1.77.54-.42,1.04-.62,1.52-.62s.76.15.86.46c.1.31.11.66.04,1.04-.07.39-.15.72-.25,1l-2.83,8.51c-.24.69-.4,1.33-.48,1.91-.08.58,0,1.04.21,1.4.16.26.39.47.7.63s.7.24,1.18.24c.42,0,.85-.08,1.29-.25.45-.17.87-.47,1.28-.91.41-.44.75-1.07,1.03-1.91l.74-2.17Z" fill="#a5a5a5"/>
      <path d="M302.84,9.74c.28-.26.42-.67.42-1.22,0-.62-.16-1.07-.48-1.36-.32-.29-.73-.43-1.25-.43-.73,0-1.44.26-2.11.77-.34.26-.63.54-.87.85-.6-.26-1.31-.4-2.14-.4-1.21,0-2.23.21-3.05.64s-1.48.96-1.98,1.61-.86,1.32-1.09,2.02c-.23.71-.34,1.33-.34,1.86,0,1.11.37,1.93,1.12,2.46s1.66.79,2.75.79c.08,0,.15-.01.22-.01-1.11.53-2,1.01-2.64,1.43-.77.51-1.3.97-1.58,1.38-.28.42-.42.82-.42,1.22,0,.5.15.89.45,1.18.3.29.69.49,1.16.61l4.55,1.16c.44.1.75.2.94.3.19.1.28.3.28.59,0,.5-.18.97-.54,1.43-.36.46-.83.86-1.43,1.21-.59.35-1.24.62-1.93.83-.7.21-1.37.31-2.02.31-.81,0-1.5-.17-2.05-.52-.56-.35-.83-.92-.83-1.71,0-.48.14-.95.42-1.43.28-.48.78-.9,1.52-1.28l-.21-.45c-.71.2-1.33.44-1.86.73-.53.29-.96.59-1.31.92-.35.33-.61.67-.79,1.01-.18.35-.27.68-.27,1,0,.44.17.82.52,1.16.35.34.87.6,1.58.79.71.19,1.57.28,2.61.28,1.55,0,2.87-.19,3.96-.56,1.09-.38,1.98-.85,2.67-1.43.68-.58,1.19-1.18,1.52-1.8.33-.62.49-1.19.49-1.68s-.15-.93-.45-1.25-.7-.58-1.21-.79c-.51-.21-1.08-.39-1.71-.55l-2.17-.57c-.63-.16-1.09-.32-1.37-.49-.28-.17-.42-.35-.42-.55,0-.26.19-.53.57-.8.38-.28.87-.58,1.47-.91.5-.27,1.04-.57,1.62-.89.78-.14,1.49-.39,2.12-.78.97-.6,1.73-1.37,2.26-2.31.54-.93.8-1.88.8-2.83,0-1.17-.36-2.02-1.09-2.54-.05-.04-.12-.07-.17-.1.14-.18.28-.35.42-.49.28-.27.71-.53,1.28-.79-.22.58-.32,1.07-.27,1.46.06.46.23.79.52,1,.29.21.59.31.91.31s.62-.13.89-.39ZM297.56,12.38c-.09.68-.26,1.35-.52,2.03-.26.67-.62,1.24-1.09,1.7-.47.46-1.08.68-1.83.68-.48,0-.86-.14-1.15-.42-.29-.28-.43-.73-.43-1.37,0-.24.03-.61.09-1.12.06-.51.16-1.07.31-1.68.15-.62.37-1.21.65-1.77.29-.57.65-1.03,1.09-1.4s.97-.55,1.61-.55c.58,0,.95.2,1.13.59.18.4.27.93.27,1.61,0,.46-.04,1.02-.13,1.7Z" fill="#a5a5a5"/>
      <path d="M304.99,20.72c-.28-.3-.65-.45-1.1-.45-.56,0-1.06.23-1.52.7-.46.47-.68,1-.68,1.59,0,.44.14.8.42,1.09.28.29.63.43,1.07.43.4,0,.76-.1,1.1-.31.34-.21.61-.49.82-.83.21-.35.31-.72.31-1.12,0-.44-.14-.8-.42-1.1Z" fill="#a5a5a5"/>
    </g>
  </g>
</svg>