<?xml version="1.0" encoding="UTF-8"?>
<svg id="Layer_2" data-name="Layer 2" xmlns="http://www.w3.org/2000/svg" viewBox="0 0 170.04 51.47">
  <g id="Layer_1-2" data-name="Layer 1">
    <g>
      <g>
        <rect width="44.68" height="51.16" fill="#00adee"/>
        <g>
          <path d="M33.95,10.83c.75.88,1.34,1.78,1.76,2.71.42.93.72,1.69.9,2.29h.68V6.83h-17.3v.74h6.67c1.72,0,3.18.33,4.37.97,1.19.65,2.17,1.41,2.92,2.29Z" fill="#fff"/>
          <path d="M33.95,40.32c.75-.88,1.34-1.78,1.76-2.71.42-.93.72-1.69.9-2.29h.68v9h-17.3v-.74h6.67c1.72,0,3.18-.33,4.37-.97,1.19-.65,2.17-1.41,2.92-2.29Z" fill="#fff"/>
          <path d="M24.89,25.21c.82.42,1.52.99,2.08,1.71.56.72,1.01,1.55,1.34,2.5.33.95.62,1.93.87,2.95h.68V15.99h-.68c-.25,1.19-.56,2.27-.95,3.24-.39.97-.88,1.79-1.47,2.48-.6.68-1.34,1.21-2.24,1.58-.9.37-1.99.55-3.29.55h-1.24v.74h1.82c1.23,0,2.26.21,3.08.63Z" fill="#fff"/>
          <polyline points="10.65 27.57 10.65 43.59 5.81 43.59 5.81 44.32 18.28 44.32 18.28 6.83 5.81 6.83 5.81 7.57 10.65 7.57 10.65 27.57" fill="#fff"/>
        </g>
      </g>
      <g>
        <path d="M59.01,16.09v.32h-2.09v15.53h3.75c.5,0,1-.08,1.51-.25.51-.17.98-.44,1.43-.83.45-.39.85-.89,1.2-1.5s.63-1.36.83-2.24h.3v5.13h-14.4v-.32h2.09v-15.53h-2.09v-.32h7.47Z" fill="#fff"/>
        <path d="M67.5,20.72c.52-1.05,1.19-1.94,2.01-2.68.82-.74,1.73-1.31,2.75-1.71,1.01-.4,2.01-.6,2.98-.6,1.04,0,2.08.2,3.1.59,1.02.39,1.93.95,2.73,1.68.79.73,1.44,1.61,1.93,2.65.49,1.04.74,2.21.74,3.51,0,1.14-.23,2.21-.69,3.24-.46,1.02-1.08,1.92-1.86,2.69-.78.77-1.68,1.38-2.7,1.83-1.02.45-2.1.67-3.24.67s-2.2-.22-3.23-.65c-1.03-.43-1.93-1.02-2.71-1.77-.78-.75-1.4-1.63-1.87-2.65-.47-1.01-.7-2.11-.7-3.29,0-1.29.26-2.45.78-3.5ZM70.69,28.13c.18,1.04.47,1.86.85,2.48.39.61.89,1.04,1.5,1.28.61.24,1.34.36,2.19.36,1.12,0,2-.21,2.63-.62.64-.42,1.11-.99,1.43-1.73.32-.73.52-1.6.6-2.61.08-1.01.12-2.1.12-3.28,0-1.06-.03-2.07-.1-3.03-.07-.96-.26-1.81-.58-2.54-.32-.73-.8-1.32-1.44-1.75-.64-.43-1.53-.65-2.67-.65-1.06,0-1.91.2-2.54.6-.64.4-1.12.97-1.45,1.69-.33.73-.55,1.59-.66,2.59-.11,1-.16,2.1-.16,3.29,0,1.57.09,2.88.27,3.92Z" fill="#fff"/>
        <path d="M98.55,20.72c-.17-.5-.37-1.03-.6-1.58-.23-.55-.54-1.06-.91-1.52-.37-.46-.83-.84-1.39-1.14s-1.24-.44-2.06-.44c-1.11,0-1.98.2-2.61.61-.64.41-1.12.98-1.44,1.7-.33.73-.53,1.59-.62,2.6-.09,1.01-.14,2.11-.14,3.3,0,1.57.09,2.88.27,3.91.18,1.03.47,1.85.85,2.45s.89,1.03,1.5,1.27c.61.24,1.34.36,2.19.36.68,0,1.3-.14,1.85-.41.55-.27,1.04-.63,1.46-1.08.42-.45.78-.96,1.07-1.53s.5-1.17.64-1.79h.36v4.81h-.36c-.08-.18-.17-.31-.27-.37s-.26-.1-.48-.1c-.18,0-.42.04-.7.12-.29.08-.62.17-.99.27-.37.1-.78.19-1.21.27-.44.08-.9.12-1.39.12-1.11,0-2.17-.22-3.2-.65-1.03-.43-1.93-1.02-2.71-1.77-.78-.75-1.4-1.63-1.87-2.65-.47-1.01-.7-2.11-.7-3.29,0-1.29.26-2.45.78-3.5.52-1.05,1.19-1.94,2.01-2.68.82-.74,1.73-1.31,2.74-1.71,1.01-.4,1.99-.6,2.96-.6.48,0,.93.05,1.35.14s.8.19,1.16.28c.36.1.68.19.97.28.29.09.53.14.73.14.21,0,.37-.03.48-.08s.18-.19.23-.4h.36v4.63h-.3Z" fill="#fff"/>
        <path d="M101.94,31.94l6.77-16.49h.61l7.15,16.49h1.95v.32h-7.63v-.32h2.11l-2.63-6.09h-5.45l-2.52,6.09h2.02v.32h-4.29v-.32h1.91ZM104.94,25.53h5.22l-2.68-6.2-2.54,6.2Z" fill="#fff"/>
        <path d="M126.63,16.09v.32h-2.09v15.53h3.75c.5,0,1-.08,1.51-.25.51-.17.98-.44,1.43-.83.45-.39.85-.89,1.2-1.5s.63-1.36.83-2.24h.3v5.13h-14.4v-.32h2.09v-15.53h-2.09v-.32h7.47Z" fill="#fff"/>
        <path d="M65.12,34.98v3.88h-.3c-.08-.26-.2-.59-.39-.99-.18-.4-.44-.79-.76-1.17-.33-.38-.75-.71-1.26-.99-.52-.28-1.14-.42-1.89-.42h-3.61v7.02h1.27c.56,0,1.03-.08,1.42-.24s.71-.39.97-.68c.26-.3.47-.65.64-1.07.17-.42.3-.88.41-1.4h.3v7.06h-.3c-.11-.44-.23-.86-.37-1.27-.14-.41-.34-.77-.58-1.08-.24-.31-.54-.56-.9-.74-.36-.18-.8-.27-1.33-.27h-1.52v8.2h3.72c.7,0,1.32-.12,1.89-.35.56-.23,1.06-.56,1.49-.99.43-.42.79-.92,1.08-1.49.29-.57.51-1.18.66-1.83h.3v4.97h-14.51v-.32h2.09v-15.53h-2.09v-.32h13.58Z" fill="#fff"/>
        <path d="M81.36,39.61c-.17-.5-.37-1.03-.6-1.58-.23-.55-.54-1.06-.91-1.52-.37-.46-.83-.84-1.39-1.14-.55-.3-1.24-.44-2.06-.44-1.11,0-1.98.2-2.61.61-.64.41-1.12.98-1.44,1.7-.33.73-.53,1.59-.62,2.6-.09,1.01-.14,2.11-.14,3.3,0,1.57.09,2.88.27,3.91.18,1.03.47,1.85.85,2.45.39.61.89,1.03,1.5,1.27s1.34.36,2.19.36c.68,0,1.3-.14,1.85-.41.55-.27,1.04-.63,1.46-1.08.42-.45.78-.96,1.07-1.53.29-.57.5-1.17.64-1.79h.36v4.81h-.36c-.08-.18-.17-.31-.27-.37-.11-.07-.27-.1-.48-.1-.18,0-.42.04-.7.12-.29.08-.62.17-.99.27-.37.1-.78.19-1.21.27-.44.08-.9.13-1.39.13-1.11,0-2.17-.22-3.2-.65-1.03-.43-1.93-1.02-2.71-1.77-.78-.75-1.4-1.63-1.87-2.65-.47-1.01-.7-2.11-.7-3.29,0-1.29.26-2.45.78-3.5s1.19-1.94,2.01-2.68c.82-.74,1.73-1.31,2.74-1.71,1.01-.4,1.99-.6,2.96-.6.48,0,.93.05,1.35.14s.8.19,1.16.28c.36.1.68.19.97.28.29.09.53.14.73.14.21,0,.37-.03.48-.08.11-.05.18-.19.23-.4h.36v4.63h-.3Z" fill="#fff"/>
        <path d="M83.8,39.61c.52-1.04,1.19-1.94,2.01-2.68.82-.74,1.73-1.31,2.75-1.71,1.01-.4,2.01-.6,2.98-.6,1.04,0,2.08.2,3.1.59,1.02.39,1.93.95,2.73,1.68.8.73,1.44,1.61,1.93,2.65.49,1.04.74,2.21.74,3.51,0,1.14-.23,2.21-.69,3.24-.46,1.02-1.08,1.92-1.86,2.69s-1.68,1.38-2.7,1.83c-1.02.45-2.1.67-3.24.67s-2.2-.22-3.23-.65c-1.03-.43-1.93-1.02-2.71-1.77-.78-.75-1.4-1.63-1.87-2.65-.47-1.01-.7-2.11-.7-3.29,0-1.29.26-2.45.78-3.5ZM86.99,47.03c.18,1.04.47,1.86.85,2.48.39.61.89,1.04,1.5,1.28s1.34.36,2.19.36c1.12,0,2-.21,2.63-.62.64-.42,1.11-.99,1.43-1.73.32-.73.52-1.61.6-2.61.08-1.01.12-2.1.12-3.28,0-1.06-.03-2.07-.1-3.03-.07-.96-.26-1.81-.58-2.54s-.8-1.32-1.44-1.75c-.64-.43-1.53-.65-2.67-.65-1.06,0-1.91.2-2.54.6-.64.4-1.12.97-1.45,1.69-.33.73-.55,1.59-.66,2.59-.11,1-.16,2.1-.16,3.29,0,1.57.09,2.88.27,3.92Z" fill="#fff"/>
        <path d="M104.53,34.98l7.56,10.81h.05v-10.49h-2.09v-.32h4.54v.32h-2.09v15.85h-.61l-10.22-14.56h-.05v14.24h2.09v.32h-4.54v-.32h2.09v-15.53h-2.09v-.32h5.36Z" fill="#fff"/>
        <path d="M116.01,39.61c.52-1.04,1.19-1.94,2.01-2.68.82-.74,1.73-1.31,2.75-1.71,1.01-.4,2.01-.6,2.98-.6,1.04,0,2.08.2,3.1.59,1.02.39,1.93.95,2.73,1.68.79.73,1.44,1.61,1.93,2.65s.74,2.21.74,3.51c0,1.14-.23,2.21-.69,3.24-.46,1.02-1.08,1.92-1.86,2.69-.78.77-1.68,1.38-2.7,1.83-1.02.45-2.1.67-3.24.67s-2.2-.22-3.23-.65c-1.03-.43-1.93-1.02-2.71-1.77-.78-.75-1.4-1.63-1.87-2.65-.47-1.01-.7-2.11-.7-3.29,0-1.29.26-2.45.78-3.5ZM119.2,47.03c.18,1.04.47,1.86.85,2.48.39.61.89,1.04,1.5,1.28s1.34.36,2.19.36c1.12,0,2-.21,2.63-.62s1.11-.99,1.43-1.73c.32-.73.52-1.61.6-2.61.08-1.01.13-2.1.13-3.28,0-1.06-.03-2.07-.1-3.03-.07-.96-.26-1.81-.58-2.54-.32-.73-.8-1.32-1.44-1.75s-1.53-.65-2.67-.65c-1.06,0-1.91.2-2.54.6-.64.4-1.12.97-1.45,1.69-.33.73-.55,1.59-.66,2.59-.11,1-.16,2.1-.16,3.29,0,1.57.09,2.88.27,3.92Z" fill="#fff"/>
        <path d="M138.76,34.98l3.93,11.31h.05l4-11.31h5.68v.32h-2.09v15.53h2.09v.32h-7.45v-.32h2.07v-15.53h-.05l-5.59,15.85h-.36l-5.61-15.85h-.05v15.53h2.09v.32h-4.54v-.32h2.09v-15.53h-2.09v-.32h5.84Z" fill="#fff"/>
        <path d="M160.66,34.98v.32h-1.79l4.63,7.93,4.18-7.93h-1.98v-.32h4.34v.32h-1.98l-4.38,8.33v7.2h2.11v.32h-7.49v-.32h2.09v-6.34l-5.27-9.2h-1.77v-.32h7.31Z" fill="#fff"/>
        <g>
          <path d="M55.32.26c-.46,0-.88.05-1.24.14-.36.09-.69.26-.98.49-.29.23-.54.55-.77.97-.23.41-.43.94-.62,1.58h-.24V0h11.76v3.43h-.24c-.19-.64-.39-1.16-.62-1.58-.23-.41-.48-.73-.77-.97-.29-.23-.61-.39-.98-.49-.36-.09-.78-.14-1.24-.14h-.68v12.83h1.73v.26h-6.17v-.26h1.73V.26h-.68Z" fill="#fff"/>
          <path d="M70.79,0v.26h-1.73v6.15h5.42V.26h-1.73v-.26h6.17v.26h-1.73v12.83h1.73v.26h-6.17v-.26h1.73v-6.42h-5.42v6.42h1.73v.26h-6.17v-.26h1.73V.26h-1.73v-.26h6.17Z" fill="#fff"/>
          <path d="M91.51,0v3.21h-.24c-.06-.21-.17-.48-.32-.82-.15-.33-.36-.65-.63-.97-.27-.31-.62-.58-1.04-.82-.43-.23-.94-.35-1.56-.35h-2.98v5.8h1.05c.46,0,.85-.07,1.17-.2.32-.13.58-.32.8-.56.21-.24.39-.54.53-.88.14-.34.25-.73.34-1.15h.24v5.83h-.24c-.09-.36-.19-.71-.31-1.05-.12-.34-.28-.63-.48-.89-.2-.26-.45-.46-.74-.61s-.66-.23-1.1-.23h-1.26v6.77h3.08c.58,0,1.09-.1,1.56-.29.46-.19.87-.47,1.23-.82.36-.35.65-.76.89-1.23.24-.47.42-.97.54-1.51h.24v4.11h-11.99v-.26h1.73V.26h-1.73v-.26h11.22Z" fill="#fff"/>
        </g>
      </g>
    </g>
  </g>
</svg>