<?xml version="1.0" encoding="UTF-8"?>
<svg id="Layer_2" data-name="Layer 2" xmlns="http://www.w3.org/2000/svg" viewBox="0 0 66.36 65.51">
  <g id="Layer_1-2" data-name="Layer 1">
    <g>
      <path d="M64.22,65.51H2.14c-.75,0-1.32-.61-1.32-1.29v-4.75c.03-.71.56-1.29,1.29-1.29h2.84s0-5.6,0-5.6c0-.78.6-1.35,1.38-1.35h2.38s0-28.29,0-28.29l-2.38-.02c-.84,0-1.39-.6-1.39-1.42v-5.52s-3.51,0-3.51,0c-.69,0-1.21-.33-1.39-.97-.14-.52.02-1.26.67-1.54L32.54.14c.44-.19.82-.19,1.27,0l31.82,13.34c.61.25.79.94.7,1.44-.12.6-.6,1.06-1.28,1.07h-3.65s0,5.53,0,5.53c0,.73-.49,1.39-1.27,1.4l-2.5.03v28.28s2.38,0,2.38,0c.9,0,1.4.65,1.4,1.49v5.46s2.71,0,2.71,0c.78,0,1.36.51,1.42,1.31v4.74c-.01.68-.59,1.29-1.33,1.29ZM58.32,13.32L33.19,2.73,8.04,13.32h50.28ZM7.59,15.99v4.3h10.24v-4.3H7.59ZM45.87,58.17v-5.71c.09-.7.6-1.23,1.32-1.22l2.45-.04v-28.25s-2.31-.03-2.31-.03c-.86.06-1.46-.58-1.46-1.41v-5.53s-25.39,0-25.39,0v5.66c0,.73-.63,1.28-1.33,1.28l-2.44.03v28.27s2.46,0,2.46,0c.64,0,1.29.52,1.29,1.23v5.71s25.4,0,25.4,0ZM58.76,15.99h-10.24v4.3h10.24v-4.3ZM14.07,22.93h-2.72v28.3h2.72v-28.3ZM55,22.93h-2.71v28.3h2.71v-28.3ZM17.84,53.88H7.59v4.3h10.24v-4.3ZM58.76,53.88h-10.24v4.3h10.24v-4.3ZM62.9,60.82H3.46v2.05h59.45v-2.05Z"/>
      <path d="M33.65,49.77l-10.18-10.46c-.42-.43-.35-1.15-.16-1.54.3-.59.88-.79,1.54-.66,4.07.76,9.21,1.17,11.09-2.88h-10.95c-.77,0-1.29-.62-1.32-1.28-.03-.72.53-1.34,1.32-1.37h11.54c.03-1.13-.04-2.16-.23-3.28h-11.18c-.82,0-1.41-.5-1.44-1.3-.03-.67.52-1.34,1.33-1.34h16.86c.81,0,1.34.68,1.33,1.35-.01.78-.62,1.31-1.41,1.3h-2.77c.11,1.07.18,2.1.19,3.27l2.69.02c.74,0,1.27.6,1.3,1.25.03.7-.5,1.38-1.28,1.38h-3.17c-1.51,4.93-5.79,6.22-10.68,6.02l7.43,7.64c.46.57.45,1.29-.02,1.8-.37.41-1.27.67-1.83.09Z"/>
      <path d="M36.84,8.51c0,2.02-1.64,3.66-3.66,3.66s-3.66-1.64-3.66-3.66,1.64-3.66,3.66-3.66,3.66,1.64,3.66,3.66ZM34.19,8.52c0-.56-.46-1.02-1.02-1.02s-1.02.46-1.02,1.02.46,1.02,1.02,1.02,1.02-.46,1.02-1.02Z"/>
    </g>
  </g>
</svg>